<svg id="Mascot" xmlns="http://www.w3.org/2000/svg" viewBox="0 0 900.71 665.32"><defs><style>.cls-1{fill:#13150e;}.cls-2{fill:#e67f61;}.cls-3{fill:#a0504e;}.cls-4{fill:#fff;}.cls-5{fill:#1b1011;}.cls-6{fill:#131c2f;}.cls-7{fill:#bcb1b1;}.cls-8{fill:none;}.cls-9{fill:#1e1e1e;}.cls-10{fill:#b85152;}.cls-11{fill:#db803c;}.cls-12{fill:#d61e3d;}.cls-13{fill:#fdfefe;}</style></defs><title>bigbearBJJ</title><path class="cls-1" d="M782.28,461.1A34.46,34.46,0,0,1,764.51,441c-13.44-38.72-53.9-51.81-58.47-53.18l-16.95-5.06-10.67,14.11c-.23.3-23.09,30.42-40.61,46.76-14.5,13.54-36.75,20.52-36.9,20.57L527,486.31l201.4,73,15.85-31.82,40.38-19.39,34-16.05Zm-56.95,47.21-.17.34-9.44,19-107.5-39s27.6-8.26,47-26.35c3.11-2.91,6.34-6.17,9.58-9.6,16.94-17.93,34-40.43,34-40.43s32.11,9.57,41.67,37.11,33.23,35.74,33.23,35.74Z" transform="translate(-58.34 -150.27)"/><path class="cls-2" d="M740.42,449.36c-9.56-27.54-41.67-37.11-41.67-37.11s-17,22.5-34,40.43c3.08,8.37,17.81,41.85,60.37,56l.17-.34,48.32-23.21S750,476.9,740.42,449.36Z" transform="translate(-58.34 -150.27)"/><path class="cls-3" d="M664.79,452.68c-3.24,3.43-6.47,6.69-9.58,9.6-19.39,18.09-47,26.35-47,26.35l107.5,39,9.44-19C682.6,494.53,667.87,461.05,664.79,452.68Z" transform="translate(-58.34 -150.27)"/><path class="cls-1" d="M191.43,467.53l14.5,28,37.12,25.06,11,33.78L464,511.47l-69.9-32.63c-.14-.06-21.13-10.21-33.51-25.71-15-18.72-33.19-51.85-33.38-52.18l-8.5-15.5L301.19,388c-4.73.69-46.65,7.75-65.59,44.11a34.46,34.46,0,0,1-20.51,17.3Zm28.71,6.86s24.61-4.67,38.08-30.52,46.62-30.65,46.62-30.65,13.57,24.74,27.71,44.94c2.71,3.86,5.44,7.56,8.09,10.88C357.19,489.76,383.3,502,383.3,502l-112,22.92-6.59-20.13-.11-.36Z" transform="translate(-58.34 -150.27)"/><path class="cls-2" d="M258.22,443.87c13.46-25.86,46.62-30.65,46.62-30.65s13.57,24.74,27.71,44.94c-4.26,7.83-23.7,38.81-67.87,46.58l-.11-.36-44.43-30S244.75,469.72,258.22,443.87Z" transform="translate(-58.34 -150.27)"/><path class="cls-3" d="M332.55,458.16c2.71,3.86,5.44,7.56,8.09,10.88C357.19,489.76,383.3,502,383.3,502l-112,22.92-6.59-20.13C308.85,497,328.29,466,332.55,458.16Z" transform="translate(-58.34 -150.27)"/><path class="cls-4" d="M237.85,560c-1.28,15.57-7.23,24.9-17.88,28.07q8.07,2.79,11.09,8.88,3.21,6.35,2.19,18.84-1.41,17.12-2.81,34.29c-1,12.24-3.72,22.17-8.2,29.88s-9.9,12.06-16.41,13q-34.32,4.83-68.53,10.79,6.62-23.22,13.15-45.93,6-61.15,11.94-121.15-2.08-21.42-4.08-43H223.2c6.15,0,10.72,3.57,13.76,10.63s4.13,16.6,3.13,28.68Q239,546.44,237.85,560Zm-49.07,12.84q8.86-.51,17.74-1,1.64-18.37,3.29-36.68l-17.55.52Q190.52,554.19,188.78,572.81Zm14.43,36q-9,.74-17.92,1.51-2,21.72-4,43.56,9.06-1.1,18.13-2.12Q201.3,630.21,203.21,608.8Z" transform="translate(-58.34 -150.27)"/><path class="cls-4" d="M299.38,533.47Q295.72,588,292.06,643q3.07,19.62,6.26,39.1-24.56,2.36-49.08,5.28,6-21.06,11.94-41.79,4.17-56,8.36-111.49-2.75-19.92-5.38-40h46.25Q304.95,513.71,299.38,533.47Z" transform="translate(-58.34 -150.27)"/><path class="cls-4" d="M329,532.53q1.07-18.3,7.12-28.56c4-6.83,9-10.21,15.23-10.21H405l-1.8,53.59q-12.81-7.73-25.48-15.52-9.76.12-19.53.26-2.6,53.14-5.21,106.51,10.13-.55,20.25-1,.54-12.9,1.09-25.79-3.8-18.59-7.46-37.27,18.44-.51,36.87-.88-1.66,50.32-3.34,100.74-29.28,1.36-58.52,3.54c-6.58.49-11.6-2.51-15-9.08s-4.8-16.14-4.09-28.41Q325.9,586.32,329,532.53Z" transform="translate(-58.34 -150.27)"/><path class="cls-4" d="M513.21,554.47q.12,21.36-15.55,24.7,8.37,3,12,8.76,3.79,6,3.86,17.38.09,15.56.17,31.11c.06,11.08-1.82,19.85-5.7,26.33s-9,9.71-15.59,9.72q-34.58.1-69.15,1.33,4.95-19.11,9.8-38.13,1.19-52.27,2.36-104.5-3.83-18.75-7.55-37.54h64.89q9.23,0,14.7,9.74t5.66,26.36Q513.15,542.11,513.21,554.47Zm-48.3,9.45q8.89-.06,17.78-.08.09-16.44.19-32.86l-17.58,0Zm17.6,32.9q-9,0-18,.12l-.45,38.15q9.12-.12,18.24-.17Z" transform="translate(-58.34 -150.27)"/><path class="cls-4" d="M544.32,635.4q-.84-52.11-1.67-104.21-4.56-18.74-9-37.44h75.29l2.31,58.17q-12.76-10.32-25.35-20.45l-13.68-.11.9,33.85q9.78.15,19.56.32.55,16.56,1.1,33.14-9.88-.27-19.78-.47.51,18.94,1,37.9,7.1.21,14.18.45,13.15-11.53,26.08-23.13,1.26,31.26,2.52,62.58-40.87-2.34-81.8-3.08Q540.2,654.18,544.32,635.4Z" transform="translate(-58.34 -150.27)"/><path class="cls-4" d="M646.38,639.15q4.65-72.49,8.51-145.52h47.48q13.05,74.64,26.84,151.46,5.34,20.6,10.78,41.49-18.79-2.19-37.62-4-3.25-23.31-6.47-46.47-9.23-.66-18.45-1.26-.32,22.71-.67,45.39-18.46-1.58-37-2.83Q643.17,658.32,646.38,639.15Zm45.44-37.71q-5.94-38.22-11.69-76-1.15,37.68-2.5,75.26Q684.73,601.06,691.82,601.44Z" transform="translate(-58.34 -150.27)"/><path class="cls-4" d="M838.34,580.48c.79,7.94-.33,14.61-3.37,19.91-2.77,4.66-6.29,7.07-10.54,7.26,2.38,7.21,13.6,37.66,34.49,95.9q-16.5-2.88-33-5.49Q810.25,656,795.08,616q3.48,39,7,78.48-20-2.91-40-5.45,2.79-20.19,5.47-40.53-4.69-57.18-9.42-113.69-5.94-20.44-11.79-40.59l63.32,0c6.1,0,11.32,3.64,15.69,11s7.27,17.52,8.56,30.41Q836.12,558,838.34,580.48ZM804.71,536.1q-8.43-.27-16.86-.51,1.93,21.38,3.87,42.88,8.53.51,17.06,1Q806.74,557.74,804.71,536.1Z" transform="translate(-58.34 -150.27)"/><path class="cls-5" d="M112.3,696.57q6.28-22.1,12.5-43.7c3.76-38.59,7.61-77.69,11.47-116.29-1.32-13.47-2.61-27.11-3.85-40.56l-2.62-28.39h93.4c16.71,0,30.41,9.59,37.62,26.3,4.86,11.19,6.55,24.65,5.18,41.16l-2.24,27c-.94,11.48-3.77,20.46-7.58,27.48,2.92,7.83,3.9,17.14,3,28.3q-1.41,17.11-2.81,34.29c-1.33,16.24-5.12,29.58-11.59,40.75-10.73,18.66-25.12,24.29-35.3,25.72-22.53,3.17-45.3,6.75-67.69,10.66L101,736.42Z" transform="translate(-58.34 -150.27)"/><path class="cls-5" d="M235.45,641q4-53.29,8-106.11c-1.7-12.35-3.39-24.9-5-37.36l-3.86-29.39,110.16,0-9.22,33q-5.11,18.29-10.32,36.76-3.47,51.8-6.94,103.94c1.88,12,3.83,24.13,5.78,36.08l4.48,27.43L300.8,708c-16.1,1.54-32.41,3.3-48.47,5.21l-38.83,4.64Z" transform="translate(-58.34 -150.27)"/><path class="cls-5" d="M340.49,704c-15.71,0-29.1-8.45-36.73-23.17-5.68-10.94-8-24.64-7-41.87q3.13-54.09,6.27-107.89c1-16.5,4.44-29.65,10.64-40.2,11.72-20.07,28.62-23.06,37.66-23.06h80.5l-2.67,79.36,1.41,0-5.05,152.14-24,1.11c-19.17.89-38.62,2.07-57.78,3.5C342.69,703.91,341.58,704,340.49,704Z" transform="translate(-58.34 -150.27)"/><path class="cls-5" d="M398,667.27c3.06-11.78,6.1-23.59,9-35.15l2.23-98.62c-2.36-11.56-4.71-23.26-7-34.83l-6.15-31h96.54c15.49,0,29.08,8.35,37.31,22.91,5.92,10.41,9,23.55,9.05,39.05l.14,24.73c.06,10.3-1.79,18.52-4.72,25.09,3.3,7.22,4.94,15.71,5,25.76l.17,31.11c.09,16.06-3,29.06-9.36,39.76-8.42,14.22-22.22,22.39-37.86,22.43-22.68.06-45.66.51-68.29,1.31L389.28,701Z" transform="translate(-58.34 -150.27)"/><path class="cls-5" d="M616.31,702c-26.8-1.53-54-2.55-80.79-3l-31.91-.58,7-31.13c2.58-11.44,5.15-23,7.66-34.43l-1.58-98.28c-2.82-11.59-5.62-23.27-8.35-34.75l-7.6-32H633.93l3.6,90.74,1.5-1.34,5.9,146.44Z" transform="translate(-58.34 -150.27)"/><path class="cls-5" d="M737,712.4c-12.35-1.43-24.84-2.77-37.15-4l-12.6-1.23-12.67-1.09c-12.05-1-24.33-2-36.5-2.79l-28.84-2,5-28.47c2.1-12,4.22-24.33,6.31-36.75,3-47.47,5.87-95.88,8.4-143.9l1.31-24.62h94L728,489.15c8.12,46.46,16.84,95.66,26.65,150.38q5.22,20.12,10.52,40.5l9.55,36.75Z" transform="translate(-58.34 -150.27)"/><path class="cls-5" d="M854.45,729.16c-10.78-1.88-21.76-3.7-32.62-5.42l-11.76-1.86-11.79-1.72c-13.07-1.91-26.35-3.72-39.49-5.39l-26.09-3.3,3.6-26.05c1.71-12.39,3.42-25,5.08-37.61-2.94-35.72-6-72.13-9-108.29q-5.58-19.18-11.07-38.11l-9.65-33.25,97.95,0c8.94,0,25.78,3.09,38,23.71,6.45,10.8,10.41,24.25,12.09,41.12q2.24,22.38,4.47,44.9c1.33,13.43-.92,25.34-6.69,35.4l-.22.38c-.64,1.08-1.32,2.13-2,3.13l4.78,13.2c5.65,15.64,13.4,37,23.33,64.74l15.09,42.06Z" transform="translate(-58.34 -150.27)"/><path class="cls-4" d="M237.85,560c-1.28,15.57-7.23,24.9-17.88,28.07q8.07,2.79,11.09,8.88,3.21,6.35,2.19,18.84-1.41,17.12-2.81,34.29c-1,12.24-3.72,22.17-8.2,29.88s-9.9,12.06-16.41,13q-34.32,4.83-68.53,10.79,6.62-23.22,13.15-45.93,6-61.15,11.94-121.15-2.08-21.42-4.08-43H223.2c6.15,0,10.72,3.57,13.76,10.63s4.13,16.6,3.13,28.68Q239,546.44,237.85,560Zm-49.07,12.84q8.86-.51,17.74-1,1.64-18.37,3.29-36.68l-17.55.52Q190.52,554.19,188.78,572.81Zm14.43,36q-9,.74-17.92,1.51-2,21.72-4,43.56,9.06-1.1,18.13-2.12Q201.3,630.21,203.21,608.8Z" transform="translate(-58.34 -150.27)"/><path class="cls-4" d="M299.38,533.47Q295.72,588,292.06,643q3.07,19.62,6.26,39.1-24.56,2.36-49.08,5.28,6-21.06,11.94-41.79,4.17-56,8.36-111.49-2.75-19.92-5.38-40h46.25Q304.95,513.71,299.38,533.47Z" transform="translate(-58.34 -150.27)"/><path class="cls-4" d="M329,532.53q1.07-18.3,7.12-28.56c4-6.83,9-10.21,15.23-10.21H405l-1.8,53.59q-12.81-7.73-25.48-15.52-9.76.12-19.53.26-2.6,53.14-5.21,106.51,10.13-.55,20.25-1,.54-12.9,1.09-25.79-3.8-18.59-7.46-37.27,18.44-.51,36.87-.88-1.66,50.32-3.34,100.74-29.28,1.36-58.52,3.54c-6.58.49-11.6-2.51-15-9.08s-4.8-16.14-4.09-28.41Q325.9,586.32,329,532.53Z" transform="translate(-58.34 -150.27)"/><path class="cls-4" d="M513.21,554.47q.12,21.36-15.55,24.7,8.37,3,12,8.76,3.79,6,3.86,17.38.09,15.56.17,31.11c.06,11.08-1.82,19.85-5.7,26.33s-9,9.71-15.59,9.72q-34.58.1-69.15,1.33,4.95-19.11,9.8-38.13,1.19-52.27,2.36-104.5-3.83-18.75-7.55-37.54h64.89q9.23,0,14.7,9.74t5.66,26.36Q513.15,542.11,513.21,554.47Zm-48.3,9.45q8.89-.06,17.78-.08.09-16.44.19-32.86l-17.58,0Zm17.6,32.9q-9,0-18,.12l-.45,38.15q9.12-.12,18.24-.17Z" transform="translate(-58.34 -150.27)"/><path class="cls-4" d="M544.32,635.4q-.84-52.11-1.67-104.21-4.56-18.74-9-37.44h75.29l2.31,58.17q-12.76-10.32-25.35-20.45l-13.68-.11.9,33.85q9.78.15,19.56.32.55,16.56,1.1,33.14-9.88-.27-19.78-.47.51,18.94,1,37.9,7.1.21,14.18.45,13.15-11.53,26.08-23.13,1.26,31.26,2.52,62.58-40.87-2.34-81.8-3.08Q540.2,654.18,544.32,635.4Z" transform="translate(-58.34 -150.27)"/><path class="cls-4" d="M646.38,639.15q4.65-72.49,8.51-145.52h47.48q13.05,74.64,26.84,151.46,5.34,20.6,10.78,41.49-18.79-2.19-37.62-4-3.25-23.31-6.47-46.47-9.23-.66-18.45-1.26-.32,22.71-.67,45.39-18.46-1.58-37-2.83Q643.17,658.32,646.38,639.15Zm45.44-37.71q-5.94-38.22-11.69-76-1.15,37.68-2.5,75.26Q684.73,601.06,691.82,601.44Z" transform="translate(-58.34 -150.27)"/><path class="cls-4" d="M838.34,580.48c.79,7.94-.33,14.61-3.37,19.91-2.77,4.66-6.29,7.07-10.54,7.26,2.38,7.21,13.6,37.66,34.49,95.9q-16.5-2.88-33-5.49Q810.25,656,795.08,616q3.48,39,7,78.48-20-2.91-40-5.45,2.79-20.19,5.47-40.53-4.69-57.18-9.42-113.69-5.94-20.44-11.79-40.59l63.32,0c6.1,0,11.32,3.64,15.69,11s7.27,17.52,8.56,30.41Q836.12,558,838.34,580.48ZM804.71,536.1q-8.43-.27-16.86-.51,1.93,21.38,3.87,42.88,8.53.51,17.06,1Q806.74,557.74,804.71,536.1Z" transform="translate(-58.34 -150.27)"/><path class="cls-1" d="M141.72,565.87c-24.82-1.72-48.61,30.2-51.24,33.85l-.33.46-.22.53C79.73,625,80.25,641,83,650.66c-10.44,14.67-30.23,46.16-23.15,65.41C67.92,738,87.48,755.17,98,757.82l.29.07.48,1.23c4.09,10.41,16.41,28.43,35.69,29.35l-.06.38,1.09,1.63c.59.87,14.44,21.25,32.2,24.62A25.43,25.43,0,0,0,187.17,811c15.92-7.6,34.65-30.7,36.23-32.67l.08-.1,1.26-1.59-.91-9.21,4.93-4.38.44-1.12c15.87-40.7,3-62.6,2.4-63.51l-2.31-3.78-16,7.31a82.47,82.47,0,0,0,.31-16.66l-.55-5.47-5.39,1.07c-4.08.8-11,2.88-17.14,4.82a79.44,79.44,0,0,0,4.1-13.19l1.78-8.83-8.44,3.17c-25.69,9.65-41.21,5.48-43.95,2.87a6.84,6.84,0,0,1-1.69-3,9.75,9.75,0,0,1,4.15-7.3c14.6-1.83,20.73-16.79,22.72-23.23,8.81-1.67,22.86,7.08,27.44,10.57l6.88,5.28,1.12-8.6c2-15.77-1.32-29.8-10-41.7l-.19-.23C191.56,598.06,165.76,567.54,141.72,565.87Zm15.35,48.47c-14-13,1-21,1-21,26.4,4.79,32.58,34.05,32.58,34.05C179,614.62,157.58,614.81,157.07,614.34Zm-4.49,11.48s-6.75,30.5-39.05,5.6h0s4.87,12.29,14.08,19L117.1,658.4s11.83,29.16-11.39,25.2l-9.59,11.3,12.14-4.28s1.51,7.3,17.75.78c0,0-18.15,22.88,9.53,32.46a8.46,8.46,0,0,1,1.15,2.31c.67,2.75-5.87,7.91-5.87,7.91l15.29-2.58c2.06,4.39,9.95,18.2,26.36,14.76L169,754.8l9.88-4.7s11.21,19.28,26.89,10.16l0,0h0l.06,0,0,2.89s-10.51,18.57-29.44,27.24c-1.19.55-2.41,1.06-3.68,1.52a17.07,17.07,0,0,1-8-4.45c-.35-.34-.69-.72-1-1.12h0c-2.9-3.37-5.21-8.7-4.6-17.09l3.1-7.13-11.76,7.16a18.49,18.49,0,0,1-8.6.13h0a22.1,22.1,0,0,1-11-6,34.85,34.85,0,0,1-6.25-8.47c-.25-.45-.48-.94-.72-1.42.92-1.18,2.07-2.55,3.48-4-1.41,1.48-2.56,2.85-3.48,4a59,59,0,0,1-3.44-8.53l1.25-5.87-7.71.53h0l-1,.07a43.14,43.14,0,0,1-6-2.47c-9-4.45-24.79-15.47-23.2-37.5h0a140.52,140.52,0,0,1,8.69-17.75h0c1.09-1.86,2.25-3.74,3.49-5.58a62.86,62.86,0,0,1,7.57-9.4l5.39,7.9a150.19,150.19,0,0,0-1.81-22.35s-13.74-29.28,10.06-53.15a78.46,78.46,0,0,1,7-4.15,64.59,64.59,0,0,1,9.91-4.3l.28-.09h0c4.68-1.49,9.52-2.18,13.42-.81C147.8,590,129.79,609.25,152.58,625.82Zm67.06,92.67s-6.43,22.83-10.44,28-11.45,5.49-15.72-3.23c-1.57-3.21,1.52-7.38,6.06-11.39C207.33,725.05,219.41,718.66,219.64,718.49Zm-56.32,17c-7.43-9.47-1.42-17.66,7.31-23.77,10.41-7.29,24.69-11.62,24.69-11.62C182.55,750.05,163.32,735.46,163.32,735.46ZM135.19,711c-15.38-8.52,8.23-20.9,8.23-20.9,9.5,2.81,30.73-5,30.73-5S150.57,719.57,135.19,711Z" transform="translate(-58.34 -150.27)"/><path class="cls-6" d="M128.2,748.51c.61-.61,1.26-1.24,2-1.88C129.46,747.27,128.81,747.9,128.2,748.51Z" transform="translate(-58.34 -150.27)"/><path class="cls-6" d="M146.56,745.94q.62.63,1.29,1.26Q147.18,746.57,146.56,745.94Z" transform="translate(-58.34 -150.27)"/><path class="cls-6" d="M131.22,745.65c.74-.65,1.53-1.32,2.36-2C132.75,744.33,132,745,131.22,745.65Z" transform="translate(-58.34 -150.27)"/><path class="cls-6" d="M149.47,748.61c.28.24.57.46.86.68C150,749.07,149.75,748.85,149.47,748.61Z" transform="translate(-58.34 -150.27)"/><path class="cls-6" d="M160.8,754.32c-.22.34-.53.8-.94,1.36C160.27,755.12,160.58,754.66,160.8,754.32Z" transform="translate(-58.34 -150.27)"/><path class="cls-6" d="M159.8,755.77c-.33.45-.71,1-1.14,1.51C159.09,756.73,159.47,756.22,159.8,755.77Z" transform="translate(-58.34 -150.27)"/><polygon class="cls-6" points="40.37 551.27 33.21 554.07 33.21 554.07 40.37 551.27"/><path class="cls-6" d="M161.18,753.72h0L161,754Z" transform="translate(-58.34 -150.27)"/><path class="cls-6" d="M124.61,635a24.67,24.67,0,0,0,19.22-5.46h0A24.63,24.63,0,0,1,124.61,635Z" transform="translate(-58.34 -150.27)"/><path class="cls-6" d="M114,708.79c.27.83.6,1.72,1,2.64C114.61,710.51,114.28,709.62,114,708.79Z" transform="translate(-58.34 -150.27)"/><path class="cls-6" d="M103.42,701.26a4.74,4.74,0,0,0,.38.44A4.74,4.74,0,0,1,103.42,701.26Z" transform="translate(-58.34 -150.27)"/><polygon class="cls-6" points="52.4 520.97 50.61 524.57 50.61 524.57 52.4 520.97"/><path class="cls-6" d="M124.61,635c-.64-.08-1.3-.19-2-.32C123.31,634.8,124,634.91,124.61,635Z" transform="translate(-58.34 -150.27)"/><path class="cls-6" d="M158.65,757.28a43.13,43.13,0,0,1-6.27,6.46A43.13,43.13,0,0,0,158.65,757.28Z" transform="translate(-58.34 -150.27)"/><path class="cls-6" d="M115,711.43c.38.92.83,1.88,1.34,2.84C115.82,713.31,115.37,712.35,115,711.43Z" transform="translate(-58.34 -150.27)"/><path class="cls-6" d="M124,731.42c-.32.38-.67.78-1,1.17C123.31,732.2,123.66,731.8,124,731.42Z" transform="translate(-58.34 -150.27)"/><path class="cls-6" d="M121.85,733.78c-.38.4-.77.79-1.18,1.17C121.08,734.57,121.47,734.18,121.85,733.78Z" transform="translate(-58.34 -150.27)"/><path class="cls-6" d="M124.92,730.28c-.3.37-.61.75-.94,1.14C124.31,731,124.62,730.65,124.92,730.28Z" transform="translate(-58.34 -150.27)"/><path class="cls-6" d="M168.4,765.31c.35-.43.69-.84,1-1.23C169.09,764.47,168.75,764.88,168.4,765.31Z" transform="translate(-58.34 -150.27)"/><path class="cls-6" d="M172,761.41l.21-.2Z" transform="translate(-58.34 -150.27)"/><path class="cls-6" d="M152.38,763.74c-.54.44-1.09.87-1.66,1.28C151.29,764.61,151.84,764.18,152.38,763.74Z" transform="translate(-58.34 -150.27)"/><path class="cls-6" d="M173.44,760.08l.24-.2Z" transform="translate(-58.34 -150.27)"/><path class="cls-6" d="M163.15,782.88c-.06-.69-.11-1.43-.12-2.2C163,781.45,163.09,782.19,163.15,782.88Z" transform="translate(-58.34 -150.27)"/><path class="cls-6" d="M163,780.68a25.85,25.85,0,0,1,.16-3.68A25.85,25.85,0,0,0,163,780.68Z" transform="translate(-58.34 -150.27)"/><path class="cls-6" d="M149.84,765.64c-.59.4-1.21.79-1.84,1.16C148.63,766.43,149.25,766,149.84,765.64Z" transform="translate(-58.34 -150.27)"/><path class="cls-6" d="M145.09,744.35a42.76,42.76,0,0,1-4.37-5.85c-2.16,1.38-4.11,2.77-5.86,4.13,1.75-1.36,3.7-2.75,5.86-4.13A42.76,42.76,0,0,0,145.09,744.35Z" transform="translate(-58.34 -150.27)"/><path class="cls-6" d="M163.52,785.69c-.05-.28-.1-.58-.14-.91C163.42,785.11,163.47,785.41,163.52,785.69Z" transform="translate(-58.34 -150.27)"/><path class="cls-4" d="M201.34,741.54c5.45,3.8,18.3-23,18.3-23-.23.17-12.31,6.56-20.1,13.43C198.68,735.37,198.45,739.52,201.34,741.54Z" transform="translate(-58.34 -150.27)"/><path class="cls-4" d="M143.42,690.14s-11.31,8.84-5.69,14.18,36.42-19.14,36.42-19.14S152.92,693,143.42,690.14Z" transform="translate(-58.34 -150.27)"/><path class="cls-4" d="M160.43,607.3s15.81-1.23,30.19,20.05c0,0-6.18-29.26-32.58-34.05C158,593.3,151.42,602.14,160.43,607.3Z" transform="translate(-58.34 -150.27)"/><path class="cls-4" d="M167.12,731.25c7.32,6.11,28.2-31.18,28.2-31.18S181,704.4,170.63,711.69C167,717.38,162.11,727.07,167.12,731.25Z" transform="translate(-58.34 -150.27)"/><path class="cls-3" d="M110.74,671.24l-1.78,3.6h0l-5.39-7.9a62.86,62.86,0,0,0-7.57,9.4c-1.24,1.84-2.4,3.72-3.49,5.58h0l-1,22.42,7.16-2.81,4.12-1.61a2.48,2.48,0,0,0,.59,1.34,4.74,4.74,0,0,0,.38.44c1,1,2.93,2.25,6.86,3.2l2.44.58a33.2,33.2,0,0,0,.91,3.31c.27.83.6,1.72,1,2.64s.83,1.88,1.34,2.84a31.8,31.8,0,0,0,1.76,2.88,27.13,27.13,0,0,0,2.22,2.79,24.06,24.06,0,0,0,2.75,2.56,21.83,21.83,0,0,0,3.31,2.19,20.65,20.65,0,0,0,1.89.91s-.16.27-.47.73l-.42.63c-.58.85-1.42,2-2.45,3.32-.3.37-.61.75-.94,1.14s-.67.78-1,1.17-.73.8-1.11,1.19-.77.79-1.18,1.17a27.57,27.57,0,0,1-3.9,3.13,16.69,16.69,0,0,1-2.82,1.5l7.71-.53-1.25,5.87a59,59,0,0,0,3.44,8.53c.92-1.18,2.07-2.55,3.48-4l.87-.91c.61-.61,1.26-1.24,2-1.88l1.07-1c.74-.65,1.53-1.32,2.36-2,.41-.34.84-.68,1.28-1,1.75-1.36,3.7-2.75,5.86-4.13a42.76,42.76,0,0,0,4.37,5.85c.46.52.95,1.06,1.47,1.59s.84.84,1.29,1.26,1.06.95,1.62,1.41c.28.24.57.46.86.68a20,20,0,0,0,10.85,4.43h0L161,754l-.2.31c-.22.34-.53.8-.94,1.36l-.06.09c-.33.45-.71,1-1.14,1.51h0a43.13,43.13,0,0,1-6.27,6.46c-.54.44-1.09.87-1.66,1.28-.29.21-.58.42-.88.62-.59.4-1.21.79-1.84,1.16a27.7,27.7,0,0,1-3,1.48,21.51,21.51,0,0,1-3.23,1.09,18.49,18.49,0,0,0,8.6-.13l11.76-7.16-3.1,7.13c-.61,8.39,1.7,13.72,4.6,17.09,0-.19-.08-.39-.12-.61s-.1-.58-.14-.91c-.09-.58-.17-1.21-.23-1.9s-.11-1.43-.12-2.2a25.85,25.85,0,0,1,.16-3.68,19.2,19.2,0,0,1,3.14-8.91c.71-1,1.41-1.94,2.07-2.78.35-.43.69-.84,1-1.23a33.92,33.92,0,0,1,2.52-2.67l.21-.2c.46-.43.88-.8,1.28-1.13l.24-.2c.41-.33.78-.62,1.11-.85s.68-.46.93-.61.46-.27.59-.34l.21-.09a21.23,21.23,0,0,0,1.89,1.7c.34.28.73.59,1.17.9s.9.65,1.41,1c5.36,3.45,14.86,7,24.81-1.33l0,0c-15.68,9.12-26.89-10.16-26.89-10.16L169,754.8l3.48-8.54c-16.41,3.44-24.3-10.37-26.36-14.76l-15.29,2.58s6.54-5.16,5.87-7.91a8.46,8.46,0,0,0-1.15-2.31C107.86,714.28,126,691.4,126,691.4c-16.24,6.52-17.75-.78-17.75-.78L96.12,694.9l9.59-11.3c23.22,4,11.39-25.19,11.39-25.2h0Z" transform="translate(-58.34 -150.27)"/><path class="cls-3" d="M147.8,590c-3.9-1.37-8.74-.68-13.42.81h0c-.92,2.41-7.95,22.75,9.45,38.73h0A24.67,24.67,0,0,1,124.61,635c-.64-.08-1.3-.19-2-.32a34,34,0,0,1-9.11-3.25c32.3,24.9,39.05-5.6,39.05-5.6C129.79,609.25,147.8,590,147.8,590Z" transform="translate(-58.34 -150.27)"/><path class="cls-2" d="M181,761.57c-.51-.33-1-.66-1.41-1s-.83-.62-1.17-.9a21.23,21.23,0,0,1-1.89-1.7l-.21.09c-.13.07-.33.18-.59.34s-.56.35-.93.61-.7.52-1.11.85l-.24.2c-.4.33-.82.7-1.28,1.13l-.21.2a33.92,33.92,0,0,0-2.52,2.67c-.34.39-.68.8-1,1.23-.66.84-1.36,1.76-2.07,2.78a19.2,19.2,0,0,0-3.14,8.91,25.85,25.85,0,0,0-.16,3.68c0,.77.06,1.51.12,2.2s.14,1.32.23,1.9c0,.33.09.63.14.91s.08.42.12.61h0c.34.4.68.78,1,1.12a17.07,17.07,0,0,0,8,4.45c1.27-.46,2.49-1,3.68-1.52,18.93-8.67,29.44-27.24,29.44-27.24l0-2.89-.06,0h0C195.85,768.6,186.35,765,181,761.57Z" transform="translate(-58.34 -150.27)"/><path class="cls-2" d="M148,766.8c.63-.37,1.25-.76,1.84-1.16.3-.2.59-.41.88-.62.57-.41,1.12-.84,1.66-1.28a43.13,43.13,0,0,0,6.27-6.46h0c.43-.55.81-1.06,1.14-1.51l.06-.09c.41-.56.72-1,.94-1.36l.2-.31.18-.29h0a20,20,0,0,1-10.85-4.43c-.29-.22-.58-.44-.86-.68q-.84-.69-1.62-1.41t-1.29-1.26c-.52-.53-1-1.07-1.47-1.59a42.76,42.76,0,0,1-4.37-5.85c-2.16,1.38-4.11,2.77-5.86,4.13-.44.34-.87.68-1.28,1-.83.68-1.62,1.35-2.36,2l-1.07,1c-.69.64-1.34,1.27-2,1.88l-.87.91c-1.41,1.48-2.56,2.85-3.48,4,.24.48.47,1,.72,1.42a34.85,34.85,0,0,0,6.25,8.47,22.1,22.1,0,0,0,11,6h0a21.51,21.51,0,0,0,3.23-1.09A27.7,27.7,0,0,0,148,766.8Z" transform="translate(-58.34 -150.27)"/><path class="cls-2" d="M120.67,735c.41-.38.8-.77,1.18-1.17s.75-.79,1.11-1.19.7-.79,1-1.17.64-.77.94-1.14c1-1.3,1.87-2.47,2.45-3.32l.42-.63c.31-.46.47-.73.47-.73a20.65,20.65,0,0,1-1.89-.91,21.83,21.83,0,0,1-3.31-2.19,24.06,24.06,0,0,1-2.75-2.56,27.13,27.13,0,0,1-2.22-2.79,31.8,31.8,0,0,1-1.76-2.88c-.51-1-1-1.92-1.34-2.84s-.71-1.81-1-2.64a33.2,33.2,0,0,1-.91-3.31l-2.44-.58c-3.93-.95-5.89-2.19-6.86-3.2a4.74,4.74,0,0,1-.38-.44,2.48,2.48,0,0,1-.59-1.34l-4.12,1.61-7.16,2.81h0l1-22.42h0a140.52,140.52,0,0,0-8.69,17.75h0c-1.59,22,14.21,33.05,23.2,37.5a43.14,43.14,0,0,0,6,2.47l1-.07h0a16.69,16.69,0,0,0,2.82-1.5A27.57,27.57,0,0,0,120.67,735Z" transform="translate(-58.34 -150.27)"/><path class="cls-2" d="M122.64,634.67c.67.13,1.33.24,2,.32a24.63,24.63,0,0,0,19.22-5.46h0c-17.4-16-10.37-36.32-9.45-38.73h0l-.28.09a64.59,64.59,0,0,0-9.91,4.3,78.46,78.46,0,0,0-7,4.15c-23.8,23.87-10.06,53.15-10.06,53.15A150.19,150.19,0,0,1,109,674.84h0l1.78-3.6,6.36-12.84h0l10.51-7.95c-9.21-6.74-14.08-19-14.08-19h0A34,34,0,0,0,122.64,634.67Z" transform="translate(-58.34 -150.27)"/><path class="cls-7" d="M160.43,607.3c-9-5.16-2.39-14-2.39-14s-15,8.09-1,21c.51.47,22,.28,33.55,13C176.24,606.07,160.43,607.3,160.43,607.3Z" transform="translate(-58.34 -150.27)"/><path class="cls-7" d="M137.73,704.32c-5.62-5.34,5.69-14.18,5.69-14.18s-23.61,12.38-8.23,20.9,39-25.86,39-25.86S143.35,709.67,137.73,704.32Z" transform="translate(-58.34 -150.27)"/><path class="cls-7" d="M167.12,731.25c-5-4.18-.09-13.87,3.51-19.56-8.73,6.11-14.74,14.3-7.31,23.77,0,0,19.23,14.59,32-35.39C195.32,700.07,174.44,737.36,167.12,731.25Z" transform="translate(-58.34 -150.27)"/><path class="cls-7" d="M201.34,741.54c-2.89-2-2.66-6.17-1.8-9.62-4.54,4-7.63,8.18-6.06,11.39,4.27,8.72,11.7,8.45,15.72,3.23s10.44-28,10.44-28S206.79,745.34,201.34,741.54Z" transform="translate(-58.34 -150.27)"/><path class="cls-1" d="M876.61,784.15l0-.39c19.29.63,33-16.35,37.92-26.4l.58-1.18.3,0c10.65-1.81,31.53-17.35,41.34-38.57,8.6-18.61-8.61-51.59-17.84-67,3.5-9.42,5.3-25.33-2.92-50.35l-.18-.54-.3-.49c-2.33-3.84-23.49-37.57-48.36-37.83-24.11-.26-52.26,28.09-55.39,31.33l-.2.22c-9.59,11.16-14.06,24.88-13.29,40.76l.43,8.64,7.28-4.68c4.84-3.12,19.55-10.72,28.2-8.35,1.46,6.58,6.38,22,20.78,25a9.78,9.78,0,0,1,3.56,7.61,7,7,0,0,1-1.92,2.85c-3,2.38-18.75,5.3-43.59-6.38l-8.15-3.84,1.06,8.95a79.29,79.29,0,0,0,3,13.47c-5.95-2.42-12.7-5-16.69-6.17l-5.3-1.5-1,5.41a82.08,82.08,0,0,0-1,16.64l-15.41-8.58-2.6,3.58c-.63.87-15.25,21.67-2.69,63.51l.35,1.15,4.56,4.76-1.65,9.1,1.13,1.68.08.11c1.42,2.1,18.24,26.63,33.49,35.47a25.47,25.47,0,0,0,19.13,5.63c18-1.94,33.42-21.15,34.07-22Zm-5.84-20h0a18.49,18.49,0,0,1-8.56-.82l-11.15-8.08,2.52,7.36c-.06,8.41-2.8,13.54-6,16.67h0c-.37.36-.74.71-1.12,1a17.06,17.06,0,0,1-8.37,3.8c-1.22-.56-2.4-1.17-3.55-1.81-18.17-10.16-27.17-29.51-27.17-29.51l.21-2.89.06,0h0l0,0c14.9,10.34,27.61-8,27.61-8l9.48,5.47L842,738.65c16.08,4.74,25.05-8.4,27.45-12.61l15,3.8s-6.11-5.67-5.22-8.36a8.79,8.79,0,0,1,1.33-2.21c28.36-7.33,12.1-31.59,12.1-31.59,15.67,7.79,17.76.64,17.76.64l11.76,5.24-8.66-12c-23.46,2.08-9.33-26-9.33-26l-9.84-8.77c9.72-6,15.55-17.84,15.55-17.84h0c-34.19,22.24-38.47-8.7-38.47-8.7,24-14.7,7.63-35.34,7.63-35.34,4-1.05,8.77,0,13.31,1.88h0l.27.12a64.32,64.32,0,0,1,9.53,5.07,78.42,78.42,0,0,1,6.63,4.7c21.82,25.69,5.77,53.78,5.77,53.78a150.36,150.36,0,0,0-3.58,22.14l6-7.45a63.72,63.72,0,0,1,6.79,10c1.09,1.94,2.1,3.91,3,5.85h0a138.68,138.68,0,0,1,7.24,18.38h0c-.17,22.1-16.81,31.82-26.13,35.53a41.39,41.39,0,0,1-6.15,2l-.94-.14h0l-7.65-1.15.78,6a59.88,59.88,0,0,1-4.11,8.22,56.92,56.92,0,0,0-4.81-6.27,56.92,56.92,0,0,1,4.81,6.27c-.28.46-.55.93-.83,1.36a34.86,34.86,0,0,1-6.91,7.94A22.17,22.17,0,0,1,870.77,764.14ZM816.2,722.19c4.2,4.35,6.95,8.76,5.12,11.83-5,8.35-12.34,7.49-15.92,2s-8.17-28.79-8.17-28.79C797.45,707.38,809,714.71,816.2,722.19ZM823,690.78s13.88,5.46,23.68,13.55c8.21,6.79,13.55,15.44,5.39,24.28C852,728.61,831.68,741.61,823,690.78Zm22.3-13.15s20.53,9.43,30.22,7.4c0,0,22.56,14.23,6.54,21.49S845.25,677.63,845.25,677.63Zm-11.8-59S842,590,868.65,587.33c0,0,14.31,9.26-.72,21C867.39,608.8,846,606.9,833.45,618.66Z" transform="translate(-58.34 -150.27)"/><path class="cls-6" d="M853.89,749.12c.29.48.63,1,1,1.62C854.52,750.15,854.18,749.6,853.89,749.12Z" transform="translate(-58.34 -150.27)"/><polygon class="cls-6" points="867.7 553.07 859.72 549.18 867.7 553.07 867.7 553.07"/><path class="cls-6" d="M890.92,630.77a23.64,23.64,0,0,1-11-6.19h0A23.64,23.64,0,0,0,890.92,630.77Z" transform="translate(-58.34 -150.27)"/><path class="cls-6" d="M853,747.58c.19.36.48.87.86,1.49C853.48,748.45,853.19,747.94,853,747.58Z" transform="translate(-58.34 -150.27)"/><path class="cls-6" d="M898.64,631.56a26.16,26.16,0,0,1-7.72-.79A26.16,26.16,0,0,0,898.64,631.56Z" transform="translate(-58.34 -150.27)"/><path class="cls-6" d="M864.77,742.83c-.58.4-1.17.78-1.78,1.15C863.6,743.61,864.19,743.23,864.77,742.83Z" transform="translate(-58.34 -150.27)"/><path class="cls-6" d="M898.64,631.56a26.48,26.48,0,0,0,3-.29A26.48,26.48,0,0,1,898.64,631.56Z" transform="translate(-58.34 -150.27)"/><path class="cls-6" d="M914.05,699.72a4,4,0,0,0,.41-.41A4,4,0,0,1,914.05,699.72Z" transform="translate(-58.34 -150.27)"/><path class="cls-6" d="M871,737.35a43.61,43.61,0,0,1-3.74,3.55A43.61,43.61,0,0,0,871,737.35Z" transform="translate(-58.34 -150.27)"/><path class="cls-6" d="M852.84,747.29l-.16-.31h0Z" transform="translate(-58.34 -150.27)"/><path class="cls-6" d="M854.92,750.74a44.56,44.56,0,0,0,4.32,5.49A44.56,44.56,0,0,1,854.92,750.74Z" transform="translate(-58.34 -150.27)"/><path class="cls-6" d="M859.24,756.23c.45.48.93,1,1.42,1.45C860.17,757.2,859.69,756.71,859.24,756.23Z" transform="translate(-58.34 -150.27)"/><path class="cls-6" d="M891.12,727.11l-.41-.59Z" transform="translate(-58.34 -150.27)"/><path class="cls-6" d="M871.29,737.08a39,39,0,0,0,3-3.64c.51.39,1,.78,1.49,1.17-.49-.39-1-.78-1.49-1.17A39,39,0,0,1,871.29,737.08Z" transform="translate(-58.34 -150.27)"/><path class="cls-6" d="M892,728.35c-.31-.42-.6-.83-.88-1.24C891.4,727.52,891.69,727.93,892,728.35Z" transform="translate(-58.34 -150.27)"/><path class="cls-6" d="M905.06,702.65l-.58.1a36,36,0,0,1-1.73,4.47,36,36,0,0,0,1.73-4.47Z" transform="translate(-58.34 -150.27)"/><path class="cls-6" d="M848,777.77c-.07.32-.15.62-.22.89C847.86,778.39,847.94,778.09,848,777.77Z" transform="translate(-58.34 -150.27)"/><path class="cls-6" d="M848.6,767.41a18.06,18.06,0,0,0-2.2-6.52q-.46-.79-.93-1.53.46.74.93,1.53A18.06,18.06,0,0,1,848.6,767.41Z" transform="translate(-58.34 -150.27)"/><path class="cls-6" d="M838.22,750.8l.62.51Z" transform="translate(-58.34 -150.27)"/><path class="cls-6" d="M878.54,736.9c-.86-.76-1.78-1.52-2.75-2.29C876.76,735.38,877.68,736.14,878.54,736.9Z" transform="translate(-58.34 -150.27)"/><path class="cls-6" d="M839.71,752.1l.27.26Z" transform="translate(-58.34 -150.27)"/><path class="cls-6" d="M848.6,767.41a27.73,27.73,0,0,1-.21,8.48A27.73,27.73,0,0,0,848.6,767.41Z" transform="translate(-58.34 -150.27)"/><path class="cls-6" d="M841.13,753.56l.19.21Z" transform="translate(-58.34 -150.27)"/><path class="cls-4" d="M813.63,731.62c3-1.78,3.14-5.93,2.57-9.43-7.22-7.48-18.75-14.81-19-15C797.23,707.19,807.89,735,813.63,731.62Z" transform="translate(-58.34 -150.27)"/><path class="cls-4" d="M880,699.62c6-4.88-4.55-14.59-4.55-14.59-9.69,2-30.22-7.4-30.22-7.4S874,704.5,880,699.62Z" transform="translate(-58.34 -150.27)"/><path class="cls-4" d="M865.15,601.09c9.4-4.42,3.5-13.76,3.5-13.76-26.69,2.66-35.2,31.33-35.2,31.33C849.49,598.61,865.15,601.09,865.15,601.09Z" transform="translate(-58.34 -150.27)"/><path class="cls-4" d="M848.57,724.11c5.33-3.76,1.19-13.81-1.94-19.78-9.8-8.09-23.68-13.55-23.68-13.55S840.78,729.61,848.57,724.11Z" transform="translate(-58.34 -150.27)"/><path class="cls-3" d="M860.66,757.68c-.49-.48-1-1-1.42-1.45a44.56,44.56,0,0,1-4.32-5.49c-.4-.59-.74-1.14-1-1.62l0,0c-.38-.62-.67-1.13-.86-1.49l-.16-.29-.16-.31h0a16.62,16.62,0,0,0,4.36-.49,21.57,21.57,0,0,0,2.07-.65A24.71,24.71,0,0,0,863,744c.61-.37,1.2-.75,1.78-1.15l.85-.61q.87-.65,1.68-1.32a43.61,43.61,0,0,0,3.74-3.55l.25-.27a39,39,0,0,0,3-3.64c.51.39,1,.78,1.49,1.17,1,.77,1.89,1.53,2.75,2.29a70,70,0,0,1,6.57,6.53,56.92,56.92,0,0,1,4.81,6.27,59.88,59.88,0,0,0,4.11-8.22l-.78-6,7.65,1.15a17.2,17.2,0,0,1-3.33-2.24c-.43-.35-.84-.72-1.25-1.11-.61-.57-1.19-1.18-1.75-1.8-.93-1-1.79-2.12-2.57-3.17-.31-.42-.6-.83-.88-1.24l-.41-.59a51.51,51.51,0,0,1-3-4.93,24.51,24.51,0,0,0,12.8-10.35,33.14,33.14,0,0,0,2.2-4,36,36,0,0,0,1.73-4.47l.58-.1,1.89-.29a15.54,15.54,0,0,0,6.66-2.28,5.67,5.67,0,0,0,.44-.36,4,4,0,0,0,.41-.41,2.44,2.44,0,0,0,.69-1.28l2.91,1.42,8,3.88.84-22.42h0c-.93-1.94-1.94-3.91-3-5.85a63.72,63.72,0,0,0-6.79-10l-6,7.45-6.8-17h0s-14.13,28.11,9.33,26l8.66,12-11.76-5.24s-2.09,7.15-17.76-.64c0,0,16.26,24.26-12.1,31.59a8.79,8.79,0,0,0-1.33,2.21c-.89,2.69,5.22,8.36,5.22,8.36l-15-3.8c-2.4,4.21-11.37,17.35-27.45,12.61l2.79,8.78L835.34,742s-12.71,18.32-27.61,8l0,0c11.45,11.31,23.68,4.3,27.87,1.28,1-.7,1.5-1.18,1.5-1.18a1.34,1.34,0,0,1,.19.11l.56.38.41.3.62.51c.26.23.56.49.87.79l.27.26c.36.35.74.75,1.15,1.2l.19.21a36.83,36.83,0,0,1,2.36,2.93c.58.8,1.18,1.68,1.79,2.66q.46.74.93,1.53a18.06,18.06,0,0,1,2.2,6.52,27.73,27.73,0,0,1-.21,8.48c-.12.68-.25,1.31-.38,1.88-.07.32-.15.62-.22.89s-.11.42-.16.61c3.15-3.13,5.89-8.26,6-16.67l-2.52-7.36,11.15,8.08a18.49,18.49,0,0,0,8.56.82,24.72,24.72,0,0,1-6-3.07A33.06,33.06,0,0,1,860.66,757.68Z" transform="translate(-58.34 -150.27)"/><path class="cls-3" d="M901.63,631.27a26.48,26.48,0,0,1-3,.29,26.16,26.16,0,0,1-7.72-.79,23.64,23.64,0,0,1-11-6.19h0a34.42,34.42,0,0,0,12.73-19.18c.12-.49.23-1,.33-1.45a38,38,0,0,0-.54-17.22h0c-4.54-1.86-9.32-2.93-13.31-1.88,0,0,16.41,20.64-7.63,35.34,0,0,4.28,30.94,38.47,8.7A35.7,35.7,0,0,1,903.2,631C902.67,631.11,902.15,631.2,901.63,631.27Z" transform="translate(-58.34 -150.27)"/><path class="cls-2" d="M848,777.77c.13-.57.26-1.2.38-1.88a27.73,27.73,0,0,0,.21-8.48,18.06,18.06,0,0,0-2.2-6.52q-.46-.79-.93-1.53c-.61-1-1.21-1.86-1.79-2.66a36.83,36.83,0,0,0-2.36-2.93l-.19-.21c-.41-.45-.79-.85-1.15-1.2l-.27-.26c-.31-.3-.61-.56-.87-.79l-.62-.51-.41-.3-.56-.38a1.34,1.34,0,0,0-.19-.11s-.54.48-1.5,1.18c-4.19,3-16.42,10-27.87-1.28h0l-.06,0-.21,2.89s9,19.35,27.17,29.51c1.15.64,2.33,1.25,3.55,1.81a17.06,17.06,0,0,0,8.37-3.8c.38-.31.75-.66,1.12-1h0c0-.19.11-.39.16-.61S847.94,778.09,848,777.77Z" transform="translate(-58.34 -150.27)"/><path class="cls-2" d="M882.18,759a34.86,34.86,0,0,0,6.91-7.94c.28-.43.55-.9.83-1.36a56.92,56.92,0,0,0-4.81-6.27,70,70,0,0,0-6.57-6.53c-.86-.76-1.78-1.52-2.75-2.29-.49-.39-1-.78-1.49-1.17a39,39,0,0,1-3,3.64l-.25.27a43.61,43.61,0,0,1-3.74,3.55q-.81.68-1.68,1.32l-.85.61c-.58.4-1.17.78-1.78,1.15a24.71,24.71,0,0,1-3.88,1.86,21.57,21.57,0,0,1-2.07.65,16.62,16.62,0,0,1-4.36.49h0l.16.31.16.29c.19.36.48.87.86,1.49l0,0c.29.48.63,1,1,1.62a44.56,44.56,0,0,0,4.32,5.49c.45.48.93,1,1.42,1.45a33.06,33.06,0,0,0,4.12,3.39,24.72,24.72,0,0,0,6,3.07h0A22.17,22.17,0,0,0,882.18,759Z" transform="translate(-58.34 -150.27)"/><path class="cls-2" d="M926,703.33h0l-8-3.88L915.15,698a2.44,2.44,0,0,1-.69,1.28,4,4,0,0,1-.41.41,5.67,5.67,0,0,1-.44.36,15.54,15.54,0,0,1-6.66,2.28l-1.89.29-.58.1a36,36,0,0,1-1.73,4.47,33.14,33.14,0,0,1-2.2,4,24.51,24.51,0,0,1-12.8,10.35,51.51,51.51,0,0,0,3,4.93l.41.59c.28.41.57.82.88,1.24.78,1,1.64,2.13,2.57,3.17.56.62,1.14,1.23,1.75,1.8.41.39.82.76,1.25,1.11a17.2,17.2,0,0,0,3.33,2.24h0l.94.14a41.39,41.39,0,0,0,6.15-2c9.32-3.71,26-13.43,26.13-35.53h0a138.68,138.68,0,0,0-7.24-18.38h0Z" transform="translate(-58.34 -150.27)"/><path class="cls-2" d="M911.06,672.54a150.36,150.36,0,0,1,3.58-22.14s16.05-28.09-5.77-53.78a78.42,78.42,0,0,0-6.63-4.7,64.32,64.32,0,0,0-9.53-5.07l-.27-.12h0A38,38,0,0,1,893,604c-.1.48-.21,1-.33,1.45a34.42,34.42,0,0,1-12.73,19.18h0a23.64,23.64,0,0,0,11,6.19,26.16,26.16,0,0,0,7.72.79,26.48,26.48,0,0,0,3-.29c.52-.07,1-.16,1.57-.27a35.7,35.7,0,0,0,6.77-2.11h0s-5.83,11.86-15.55,17.84l9.84,8.77h0Z" transform="translate(-58.34 -150.27)"/><path class="cls-7" d="M868.65,587.33s5.9,9.34-3.5,13.76c0,0-15.66-2.48-31.7,17.57,12.57-11.76,33.94-9.86,34.48-10.29C883,596.59,868.65,587.33,868.65,587.33Z" transform="translate(-58.34 -150.27)"/><path class="cls-7" d="M882,706.52c16-7.26-6.54-21.49-6.54-21.49s10.58,9.71,4.55,14.59-34.77-22-34.77-22S866,713.79,882,706.52Z" transform="translate(-58.34 -150.27)"/><path class="cls-7" d="M852,728.61c8.16-8.84,2.82-17.49-5.39-24.28,3.13,6,7.27,16,1.94,19.78-7.79,5.5-25.62-33.33-25.62-33.33C831.68,741.61,852,728.61,852,728.61Z" transform="translate(-58.34 -150.27)"/><path class="cls-7" d="M821.32,734c1.83-3.07-.92-7.48-5.12-11.83.57,3.5.47,7.65-2.57,9.43-5.74,3.36-16.4-24.43-16.4-24.43s4.59,23.27,8.17,28.79S816.37,742.37,821.32,734Z" transform="translate(-58.34 -150.27)"/><polygon class="cls-8" points="570.77 129.48 570.77 129.48 570.77 129.48 570.77 129.48 570.77 129.48"/><path class="cls-8" d="M575.16,386.19c17-21,34.69-62.3,34.69-62.3h0S592.13,365.19,575.16,386.19Z" transform="translate(-58.34 -150.27)"/><path class="cls-8" d="M637.49,400.58h0A188.69,188.69,0,0,0,648.32,380,188.69,188.69,0,0,1,637.49,400.58Z" transform="translate(-58.34 -150.27)"/><path class="cls-8" d="M575.16,386.19c-.57.7-1.14,1.38-1.7,2C574,387.57,574.59,386.89,575.16,386.19Z" transform="translate(-58.34 -150.27)"/><path class="cls-9" d="M617.61,314.75l0-.4,12.79.48s0,.34-.06.9Z" transform="translate(-58.34 -150.27)"/><path class="cls-9" d="M624,314.67s0,.19,0,.52l0-.52M611.25,314l0,.33,25.52,1.93c0-.59.07-1,.08-1.23l-24.22-1-1.36-.07Z" transform="translate(-58.34 -150.27)"/><path class="cls-4" d="M439,252.59c-11.3-8.47-22.17.12-11.8,21.93a39.19,39.19,0,0,0,7.6,7.26,61.87,61.87,0,0,1,20.14-12.91S450.25,261.06,439,252.59Z" transform="translate(-58.34 -150.27)"/><path class="cls-4" d="M554.36,252.59c-11.29,8.47-15.94,16.28-15.94,16.28a61.87,61.87,0,0,1,20.14,12.91,39.47,39.47,0,0,0,7.6-7.26C576.53,252.71,565.66,244.12,554.36,252.59Z" transform="translate(-58.34 -150.27)"/><path class="cls-4" d="M496.66,342.6c-16.07,0-35.46,12.41-42,16.95l4.42,20s4-18.44,9.14-23.26,21.21-10.47,28.46-10.47,23.31,5.65,28.46,10.47,9.14,23.26,9.14,23.26l4.42-20C532.12,355,512.73,342.6,496.66,342.6Z" transform="translate(-58.34 -150.27)"/><path class="cls-4" d="M496.66,484.29c17.32,0,31.89-11.39,37.44-16.38V450S528,475,496.66,477C465.32,475,459.22,450,459.22,450v18c5.55,5,20.12,16.38,37.44,16.38v5.54h0Z" transform="translate(-58.34 -150.27)"/><path class="cls-3" d="M428,323a148.63,148.63,0,0,1-.76-15.73c0-6.44.55-13.69,2.26-19.32a37,37,0,0,1,5.27-6.2,39.19,39.19,0,0,1-7.6-7.26s-9-2.82-10-16.61c-.23-3.19-.4-6-.63-8.45C410.63,266,421,289.31,421,289.31s-.49,10.79-13.95,13.29S388.12,295,388.12,295c-1.69,5.58-1.77,14.13-.55,23a20.45,20.45,0,0,1-4.12,5.92c.28.65,24.68,57.36,43.57,71.21-1.63-5.77-6.29-25.87,2.85-41.26,2.65-4.46,7-8.24,12-11.42C426.51,344.68,428,323,428,323Z" transform="translate(-58.34 -150.27)"/><path class="cls-3" d="M605.75,318c1.22-8.91,1.14-17.46-.55-23,0,0-5.48,10.14-18.94,7.65s-14-13.29-14-13.29,10.38-23.31,4.45-39.85c-.23,2.46-.4,5.26-.63,8.45-1,13.79-10,16.61-10,16.61a39.47,39.47,0,0,1-7.6,7.26,37,37,0,0,1,5.27,6.2c1.71,5.63,2.23,12.88,2.26,19.32a148.63,148.63,0,0,1-.76,15.73s1.48,21.65-13.88,19.41c5,3.18,9.34,7,12,11.42,9.12,15.36,4.5,35.42,2.86,41.23a35.21,35.21,0,0,0,3.62-3.11c.61-.59,1.23-1.22,1.85-1.88s1.12-1.23,1.68-1.88,1.13-1.33,1.7-2c17-21,34.69-62.3,34.69-62.3h0A20.3,20.3,0,0,1,605.75,318Z" transform="translate(-58.34 -150.27)"/><path class="cls-3" d="M364.21,279.74s-32.39,20.93-40.37,88.71a28.58,28.58,0,0,1,11-13.46s14.19,40.79,29.63,57.15c0,0,10.41-2.66,10.19-17.5s-9.75-41.21-9.75-41.21A69.16,69.16,0,0,0,362,378s-35.65-52.43,2.23-98.28Z" transform="translate(-58.34 -150.27)"/><path class="cls-3" d="M342.93,247.77c-13.37-9.18-6.25-34.35,2.91-39.58-6-.5-16.53-.67-25.32,2.8-6.34,31.33,6,57.38,6,57.38C333.85,258.4,342.93,247.77,342.93,247.77Z" transform="translate(-58.34 -150.27)"/><path class="cls-3" d="M496.66,509.47s-34.61-4.21-49.39-19.53a40.44,40.44,0,0,1-4.89-6.19c12.88,41.21,54.12,40.7,54.28,40.7h0c.15,0,41.4.51,54.28-40.7a39.83,39.83,0,0,1-4.89,6.19C531.27,505.26,496.66,509.47,496.66,509.47Z" transform="translate(-58.34 -150.27)"/><path class="cls-3" d="M477.83,250.76s4.78-3.8,18.83-4.48c14,.68,18.83,4.48,18.83,4.48s1.33-11.79,13.29-22.59a27.86,27.86,0,0,1,5.94-4.14,50,50,0,0,0-20.12,8c-12.39,8.54-17.22,9.43-17.94,9.52-.72-.09-5.55-1-17.94-9.52a50,50,0,0,0-20.12-8,27.86,27.86,0,0,1,5.94,4.14C476.5,239,477.83,250.76,477.83,250.76Z" transform="translate(-58.34 -150.27)"/><path class="cls-3" d="M649.22,378c.59-1.3,1.17-2.59,1.71-3.85.37-.85.73-1.7,1.08-2.52l.59-1.4c.38-.92.75-1.81,1.1-2.67l.52-1.28c1-2.46,1.84-4.64,2.51-6.41.13-.37.27-.72.39-1.05.23-.61.43-1.15.6-1.63l.32-.86c.09-.25.17-.48.24-.66l.25-.72a28.58,28.58,0,0,1,11,13.46c-8-67.78-40.37-88.71-40.37-88.71h0c29.59,35.82,14.31,75.65,6.2,91.36a74.21,74.21,0,0,1-4,6.91,69.16,69.16,0,0,0-2.88-24.59s-9.52,26.36-9.75,41.21c0,.92,0,1.8.08,2.64,1,12.52,10.11,14.85,10.11,14.85a74.08,74.08,0,0,0,8.59-11.55A188.69,188.69,0,0,0,648.32,380C648.63,379.37,648.92,378.71,649.22,378Z" transform="translate(-58.34 -150.27)"/><path class="cls-3" d="M647.48,208.19c9.16,5.23,16.28,30.4,2.91,39.58,0,0,9.08,10.63,16.39,20.6,0,0,12.36-26.05,6-57.38C664,207.52,653.52,207.69,647.48,208.19Z" transform="translate(-58.34 -150.27)"/><path class="cls-2" d="M345.84,208.19a6.81,6.81,0,0,1,3.07-.95c10.41-.45,28.36-2.88,28.36-2.88,4.1-4.23,7.94-8.72,10.58-11.93-15.12-9-34.16-11.27-46.88-11.66-7.33,2.76-13.59,8.3-17.13,18.24a86.76,86.76,0,0,0-3.32,12C329.31,207.52,339.8,207.69,345.84,208.19Z" transform="translate(-58.34 -150.27)"/><path class="cls-2" d="M609.1,219.71c-16.37-15.54-39-29.21-46.44-32.2-10.52-4.21-34.06-2.89-43.53-.39s-22.47,8.68-22.47,8.68-13-6.18-22.47-8.68-33-3.82-43.53.39c-7.46,3-30.07,16.66-46.44,32.2-.91,1.13-1.82,2.29-2.75,3.47-27.91,35.89-85.06,61.14-61.8,178.1,0,0,3.16-14,11.8-23.42,0,0-1.5,29.4,33.06,51.66q4.62,3,9,5.72a118.4,118.4,0,0,1-9.09-23.11l0,0h0C349,395.78,334.79,355,334.79,355a28.58,28.58,0,0,0-11,13.46c8-67.78,40.37-88.71,40.37-88.71h0S350,305.38,356.89,341c0,0,.66-12.41,12.4-26.36l0,.52a.34.34,0,0,1,0,.1c.44,1,4.23,9.36,14.11,8.6v0a20.45,20.45,0,0,0,4.12-5.92c-1.22-8.91-1.14-17.46.55-23,0,0,5.48,10.14,18.94,7.65S421,289.31,421,289.31s-10.38-23.31-4.45-39.85c-.76-8.17-2.2-12.63-8.84-15.31,0,0,18.95-9.33,52.34,21.93,0,0,6.14-.11,6.7-4.76s-3.88-30.9-26.92-28.69A23.93,23.93,0,0,1,458.6,224a50,50,0,0,1,20.12,8c12.39,8.54,17.22,9.43,17.94,9.52.72-.09,5.55-1,17.94-9.52a50,50,0,0,1,20.12-8,23.93,23.93,0,0,1,18.76-1.4c-23-2.21-27.47,24-26.92,28.69s6.71,4.76,6.71,4.76c33.38-31.26,52.33-21.93,52.33-21.93-6.64,2.68-8.08,7.14-8.84,15.31,5.93,16.54-4.45,39.85-4.45,39.85s.5,10.79,14,13.29S605.2,295,605.2,295c1.69,5.58,1.77,14.13.55,23a20.3,20.3,0,0,0,4.1,5.9c10.54.8,14.15-8.7,14.15-8.7l0-.52c11.74,13.95,12.4,26.36,12.4,26.36,6.86-35.62-7.28-61.22-7.32-61.28h0s32.39,20.93,40.37,88.71a28.58,28.58,0,0,0-11-13.46l-.25.72c-.07.18-.15.41-.24.66l-.32.86c-.17.48-.37,1-.6,1.63-.12.33-.26.68-.39,1.05-.67,1.77-1.52,3.95-2.51,6.41l-.52,1.28c-.35.86-.72,1.75-1.1,2.67l-.59,1.4c-.35.82-.71,1.67-1.08,2.52-.54,1.26-1.12,2.55-1.71,3.85-.3.67-.59,1.33-.9,2a188.69,188.69,0,0,1-10.83,20.54,73.61,73.61,0,0,1-8.59,11.55h0a118.76,118.76,0,0,1-9.11,23.13q4.37-2.76,9-5.75c34.56-22.26,33.06-51.66,33.06-51.66,8.64,9.46,11.8,23.42,11.8,23.42,23.26-117-33.89-142.21-61.8-178.1C610.92,222,610,220.84,609.1,219.71Z" transform="translate(-58.34 -150.27)"/><path class="cls-2" d="M624,315.19l-.19,1.38C623.91,316,624,315.52,624,315.19Z" transform="translate(-58.34 -150.27)"/><path class="cls-2" d="M616.05,204.36s18,2.43,28.36,2.88a6.77,6.77,0,0,1,3.07.95c6-.5,16.53-.67,25.32,2.8a86.76,86.76,0,0,0-3.32-12c-3.54-9.94-9.8-15.48-17.13-18.24-12.72.39-31.76,2.67-46.88,11.66C608.11,195.64,612,200.13,616.05,204.36Z" transform="translate(-58.34 -150.27)"/><path class="cls-2" d="M565.33,323a75.14,75.14,0,0,0-3.9-16c-.21-.56-.42-1.09-.64-1.62-3.55-5.8-11.32-15.08-25-15.95h0c-2.54,2.94-7,6.32-12.88,3.85a19.78,19.78,0,0,1-5.67-3.63,26.46,26.46,0,0,1-7-10.77l-6.2,1.22a40.18,40.18,0,0,0-7.42,18.39,40.18,40.18,0,0,0-7.42-18.39l-6.2-1.22a26.46,26.46,0,0,1-7,10.77,19.78,19.78,0,0,1-5.67,3.63c-5.89,2.47-10.34-.91-12.88-3.85h0c-13.68.87-21.45,10.15-25,15.95-.22.53-.43,1.06-.64,1.62a75.14,75.14,0,0,0-3.9,16s-1.48,21.65,13.88,19.41c1.24-.79,2.53-1.53,3.85-2.24.59-.32,1.18-.65,1.78-.95,14.7-7.51,32.26-10.9,34.18-11.95,2.9-1.58,15-9.75,15-9.75s12.08,8.17,15,9.75c1.92,1.05,19.48,4.44,34.18,11.95.6.3,1.19.63,1.78.95,1.32.71,2.61,1.45,3.85,2.24C566.81,344.68,565.33,323,565.33,323Z" transform="translate(-58.34 -150.27)"/><path class="cls-10" d="M496.66,448.55h.1c15.91-.37,25.52-6,29.12-12a11,11,0,0,0,1.57-4.42c.83-7.4.5-22.3-14.62-22.51-13-.17-15.69,3.72-16.17,4.8-.48-1.08-3.14-5-16.17-4.8-15.12.21-15.45,15.11-14.62,22.51a11,11,0,0,0,1.57,4.42c3.6,6,13.21,11.63,29.12,12h.1Z" transform="translate(-58.34 -150.27)"/><path class="cls-2" d="M652.35,180.77c-19.5-7.33-46.61,5.1-50.47,7.19,0,0,1.38,1.8,3.59,4.47C620.59,183.44,639.63,181.16,652.35,180.77Z" transform="translate(-58.34 -150.27)"/><path class="cls-2" d="M474.19,187.12c9.47,2.5,22.47,8.68,22.47,8.68s13-6.18,22.47-8.68,33-3.82,43.53.39c7.46,3,30.07,16.66,46.44,32.2C582.48,186.57,561,176.1,532.1,179c-29.9,3-35.44,10.3-35.44,10.3S491.12,182,461.22,179c-28.92-2.89-50.38,7.58-77,40.72,16.37-15.54,39-29.21,46.44-32.2C441.18,183.3,464.72,184.62,474.19,187.12Z" transform="translate(-58.34 -150.27)"/><path class="cls-2" d="M391.44,188c-3.86-2.09-31-14.52-50.47-7.19,12.72.39,31.76,2.67,46.88,11.66C390.06,189.76,391.44,188,391.44,188Z" transform="translate(-58.34 -150.27)"/><path class="cls-2" d="M538.19,286a19.46,19.46,0,0,1-2.4,3.46h0c13.68.87,21.45,10.15,25,15.95a40.5,40.5,0,0,0-5.91-10.19C547.07,285.6,538.19,286,538.19,286Z" transform="translate(-58.34 -150.27)"/><path class="cls-2" d="M438.44,295.2a40.5,40.5,0,0,0-5.91,10.19c3.55-5.8,11.32-15.08,25-15.95h0a19.46,19.46,0,0,1-2.4-3.46S446.25,285.6,438.44,295.2Z" transform="translate(-58.34 -150.27)"/><path class="cls-3" d="M520.14,276.68c1.22-2.55-2.88-10.3-10.63-9.41s-5.43,12.84-5.43,12.84l6.2-1.22S518.92,279.23,520.14,276.68Z" transform="translate(-58.34 -150.27)"/><path class="cls-3" d="M483.81,267.27c-7.75-.89-11.85,6.86-10.63,9.41s9.86,2.21,9.86,2.21l6.2,1.22S491.56,268.15,483.81,267.27Z" transform="translate(-58.34 -150.27)"/><path class="cls-1" d="M427.16,274.52c-10.37-21.81.5-30.4,11.8-21.93s15.94,16.28,15.94,16.28a61.87,61.87,0,0,0-20.14,12.91,37,37,0,0,0-5.27,6.2c-1.71,5.63-2.23,12.88-2.26,19.32A148.63,148.63,0,0,0,428,323a75.14,75.14,0,0,1,3.9-16c.21-.56.42-1.09.64-1.62a40.5,40.5,0,0,1,5.91-10.19c7.81-9.6,16.69-9.22,16.69-9.22a19.46,19.46,0,0,0,2.4,3.46c2.54,2.94,7,6.32,12.88,3.85a19.78,19.78,0,0,0,5.67-3.63,26.46,26.46,0,0,0,7-10.77s-8.64.34-9.86-2.21,2.88-10.3,10.63-9.41,5.43,12.84,5.43,12.84a40.18,40.18,0,0,1,7.42,18.39,40.18,40.18,0,0,1,7.42-18.39s-2.33-12,5.43-12.84,11.85,6.86,10.63,9.41-9.86,2.21-9.86,2.21a26.46,26.46,0,0,0,7,10.77,19.78,19.78,0,0,0,5.67,3.63c5.89,2.47,10.34-.91,12.88-3.85a19.46,19.46,0,0,0,2.4-3.46s8.88-.38,16.69,9.22a40.5,40.5,0,0,1,5.91,10.19c.22.53.43,1.06.64,1.62a75.14,75.14,0,0,1,3.9,16,148.63,148.63,0,0,0,.76-15.73c0-6.44-.55-13.69-2.26-19.32a37,37,0,0,0-5.27-6.2,61.87,61.87,0,0,0-20.14-12.91s4.65-7.81,15.94-16.28,22.17.12,11.8,21.93c0,0,9-2.82,10-16.61.23-3.19.4-6,.63-8.45.76-8.17,2.2-12.63,8.84-15.31,0,0-19-9.33-52.33,21.93,0,0-6.15-.11-6.71-4.76s3.88-30.9,26.92-28.69a23.93,23.93,0,0,0-18.76,1.4,27.86,27.86,0,0,0-5.94,4.14c-12,10.8-13.29,22.59-13.29,22.59s-4.78-3.8-18.83-4.48c-14.05.68-18.83,4.48-18.83,4.48S476.5,239,464.54,228.17A27.86,27.86,0,0,0,458.6,224a23.93,23.93,0,0,0-18.76-1.4c23-2.21,27.47,24,26.92,28.69s-6.7,4.76-6.7,4.76c-33.39-31.26-52.34-21.93-52.34-21.93,6.64,2.68,8.08,7.14,8.84,15.31.23,2.46.4,5.26.63,8.45C418.19,271.7,427.16,274.52,427.16,274.52Z" transform="translate(-58.34 -150.27)"/><path class="cls-7" d="M538.68,359.55l1.4-6.28a125.46,125.46,0,0,0-43.42-14.46,125.46,125.46,0,0,0-43.42,14.46l1.4,6.28c6.56-4.54,25.95-16.95,42-16.95S532.12,355,538.68,359.55Z" transform="translate(-58.34 -150.27)"/><path class="cls-7" d="M459.22,467.91V476c16.78,13,37.44,13.79,37.44,13.79h0v-5.54C479.34,484.29,464.77,472.89,459.22,467.91Z" transform="translate(-58.34 -150.27)"/><path class="cls-7" d="M496.66,489.83S517.33,489,534.1,476v-8.13c-5.55,5-20.12,16.38-37.44,16.38Z" transform="translate(-58.34 -150.27)"/><path class="cls-1" d="M703.16,340.41c-.15-5-.42-10.13-.8-15.18s-.88-10.24-1.49-15.31c-.2-1.7-.42-3.42-.64-5.1s-.43-3.21-.61-4.74c-.37-3.05-.67-5.92-.91-8.55s-.41-5.08-.54-7.45-.2-4.44-.24-6.53c0-1,0-2,0-3s0-1.91,0-2.83c0-1.72.1-3.45.2-5.27.09-1.56.2-3.18.35-4.94.2-2.35.42-4.62.66-7l0-.2c.12-1.2.24-2.42.36-3.67.29-3,.49-5.44.66-7.84a206.26,206.26,0,0,0,.11-25.16c-1.15-21.55-6.94-36.85-17.72-46.76s-26.54-14.78-49.33-15.09c-20.83-.28-35.6-1.6-49.88-2.87-11.76-1-23.91-2.12-39-2.58a128.48,128.48,0,0,0-16.81.57c-2.5.25-5,.59-7.37,1-1.15.2-2.29.41-3.38.64-2.09.44-4.16.94-6.14,1.5-1.81.51-3.6,1.08-5.32,1.68s-3.59,1.35-5.28,2.1l-3.43,1.52-3.44-1.52c-7.81-3.45-21.11-7.56-40.1-7.56-1.38,0-2.79,0-4.19.06-15.06.46-27.18,1.53-38.91,2.58l-8.22.72c-4.27.36-7.88.64-11.38.89l-3,.2c-4.42.28-8.61.5-12.81.67-4.76.19-9.53.32-14.56.39-22.8.31-38.47,5.11-49.33,15.09S294.16,196.08,293,217.63a206.42,206.42,0,0,0,.11,25.17c.16,2.35.36,4.77.66,7.83l.36,3.69c.24,2.35.48,4.78.68,7.21.15,1.77.26,3.39.35,4.94.1,1.79.17,3.52.2,5.27,0,.92,0,1.86,0,2.83,0,5.24-.25,10.79-.8,17-.37,4.12-.88,8.59-1.52,13.29-3.66,27.19-4.07,55-1.16,78.4a185.75,185.75,0,0,0,3.76,21c.79,3.24,1.67,6.39,2.62,9.35.47,1.48,1,3,1.5,4.39,1,2.86,2.17,5.62,3.37,8.21s2.52,5.11,3.89,7.44a64.34,64.34,0,0,0,12.06,15.09l15.36,13.94,2.5-20.7,11.65,8.29c2.37,1.68,4.86,3.31,7.4,4.82,5.37,3.21,11.12,6.41,17.21,9.79C394,476.36,411.74,486.68,418.19,496c7.23,10.41,9.91,16.74,10.72,19l.24.64.44,2.34,1.54,1.9A76.54,76.54,0,0,0,448,535.48a82.79,82.79,0,0,0,47.4,14.76h2.53a83.07,83.07,0,0,0,30.39-5.66c1.84-.72,3.67-1.52,5.46-2.38.85-.4,1.71-.83,2.56-1.28a83.86,83.86,0,0,0,17.58-12.26,76.3,76.3,0,0,0,5.61-5.63c.49-.56,1-1.11,1.41-1.64l.56-.68.7-.9,1.6-2.19.39-2.08.38-1c1-2.67,3.77-8.77,10.57-18.56,6.45-9.28,24.16-19.59,44.93-31.14l.1-.06c6.06-3.37,11.78-6.55,17.12-9.74,2.55-1.52,5-3.15,7.41-4.83l11.64-8.27,2.52,20.68,15.34-13.93a58.47,58.47,0,0,0,5.23-5.42,68.85,68.85,0,0,0,6.83-9.67,84,84,0,0,0,3.89-7.44c1.2-2.59,2.34-5.35,3.37-8.21.52-1.44,1-2.91,1.5-4.39,1-3,1.83-6.11,2.62-9.35a185.75,185.75,0,0,0,3.76-21c.55-4.37,1-9,1.29-13.63s.51-9.45.59-14.33c0-1.58,0-3.23,0-4.9C703.31,347.09,703.26,343.75,703.16,340.41ZM652.35,180.77c7.33,2.76,13.59,8.3,17.13,18.24a86.76,86.76,0,0,1,3.32,12c6.34,31.33-6,57.38-6,57.38-7.31-10-16.39-20.6-16.39-20.6,13.37-9.18,6.25-34.35-2.91-39.58a6.77,6.77,0,0,0-3.07-.95c-10.41-.45-28.36-2.88-28.36-2.88-4.1-4.23-7.94-8.72-10.58-11.93-2.21-2.67-3.59-4.47-3.59-4.47C605.74,185.87,632.85,173.44,652.35,180.77ZM320.52,211a86.76,86.76,0,0,1,3.32-12c3.54-9.94,9.8-15.48,17.13-18.24,19.5-7.33,46.61,5.1,50.47,7.19,0,0-1.38,1.8-3.59,4.47-2.64,3.21-6.48,7.7-10.58,11.93,0,0-17.95,2.43-28.36,2.88a6.81,6.81,0,0,0-3.07.95c-9.16,5.23-16.28,30.4-2.91,39.58,0,0-9.08,10.63-16.39,20.6C326.54,268.37,314.18,242.32,320.52,211ZM496.66,524.45h0c-.16,0-41.4.51-54.28-40.7a40.44,40.44,0,0,0,4.89,6.19c14.78,15.32,49.39,19.53,49.39,19.53s34.61-4.21,49.39-19.53a39.83,39.83,0,0,0,4.89-6.19C538.06,525,496.81,524.45,496.66,524.45Zm0-34.62S476,489,459.22,476V450S465.32,475,496.66,477C528,475,534.1,450,534.1,450V476c-16.77,12.95-37.4,13.79-37.44,13.79Zm-29.22-53.28a11,11,0,0,1-1.57-4.42c-.83-7.4-.5-22.3,14.62-22.51,13-.17,15.69,3.72,16.17,4.8.48-1.08,3.14-5,16.17-4.8,15.12.21,15.45,15.11,14.62,22.51a11,11,0,0,1-1.57,4.42c-3.6,6-13.21,11.63-29.12,12h-.2C480.65,448.18,471,442.57,467.44,436.55Zm66.82-57s-4-18.44-9.14-23.26-21.21-10.47-28.46-10.47-23.31,5.65-28.46,10.47-9.14,23.26-9.14,23.26l-4.42-20-1.4-6.28a125.46,125.46,0,0,1,43.42-14.46,125.46,125.46,0,0,1,43.42,14.46l-1.4,6.28Zm139.39,21.76s-3.16-14-11.8-23.42c0,0,1.5,29.4-33.06,51.66q-4.63,3-9,5.75a118.76,118.76,0,0,0,9.11-23.13h0a73.61,73.61,0,0,0,8.59-11.55h0a74.08,74.08,0,0,1-8.59,11.55s-9.15-2.33-10.11-14.85c-.06-.84-.09-1.72-.08-2.64.23-14.85,9.75-41.21,9.75-41.21A69.16,69.16,0,0,1,631.34,378a74.21,74.21,0,0,0,4-6.91c8.11-15.71,23.39-55.54-6.2-91.36,0,.06,14.18,25.66,7.32,61.28,0,0-.66-12.41-12.4-26.36,0,0,0,.19,0,.52s-.09.81-.19,1.38l.19-1.38s-3.61,9.5-14.15,8.7h0s-17.72,41.3-34.69,62.3c-.57.7-1.14,1.38-1.7,2s-1.13,1.28-1.68,1.88-1.24,1.29-1.85,1.88a35.21,35.21,0,0,1-3.62,3.11c1.64-5.81,6.26-25.87-2.86-41.23-2.66-4.46-7-8.24-12-11.42-1.24-.79-2.53-1.53-3.85-2.24-.59-.32-1.18-.65-1.78-.95-14.7-7.51-32.26-10.9-34.18-11.95-2.9-1.58-15-9.75-15-9.75s-12.08,8.17-15,9.75c-1.92,1.05-19.48,4.44-34.18,11.95-.6.3-1.19.63-1.78.95-1.32.71-2.61,1.45-3.85,2.24-5,3.18-9.35,7-12,11.42-9.14,15.39-4.48,35.49-2.85,41.26-18.89-13.85-43.29-70.56-43.57-71.21v0c-9.88.76-13.67-7.55-14.11-8.6a.34.34,0,0,0,0-.1l0-.52c-11.74,13.95-12.4,26.36-12.4,26.36-6.87-35.65,7.31-61.26,7.32-61.29C326.33,325.59,362,378,362,378a69.16,69.16,0,0,1,2.88-24.59s9.53,26.36,9.75,41.21-10.19,17.5-10.19,17.5h0l0,0a118.4,118.4,0,0,0,9.09,23.11q-4.34-2.75-9-5.72c-34.56-22.26-33.06-51.66-33.06-51.66-8.64,9.46-11.8,23.42-11.8,23.42-23.26-117,33.89-142.21,61.8-178.1.93-1.18,1.84-2.34,2.75-3.47,26.62-33.14,48.08-43.61,77-40.72,29.9,3,35.44,10.3,35.44,10.3S502.2,182,532.1,179c28.92-2.89,50.38,7.58,77,40.72.91,1.13,1.82,2.29,2.75,3.47C639.76,259.07,696.91,284.32,673.65,401.28Z" transform="translate(-58.34 -150.27)"/><path class="cls-11" d="M416.38,698.69q-1.38,11.5-2.75,23.21a11.19,11.19,0,0,1-2.47,6.09,8,8,0,0,1-5.07,2.89c-3,.45-6.11.93-9.16,1.42-2,.34-3.54-.16-4.53-1.53s-1.31-3.45-.95-6.15l1.11-8.19q3.69,3.45,7.48,6.71l4-.49q1.5-12,3-23.69c-.7-2.79-1.39-5.59-2.06-8.42h15C418.8,693.22,417.59,695.94,416.38,698.69Z" transform="translate(-58.34 -150.27)"/><path class="cls-11" d="M433.55,706.62q-.75,7.73-1.5,15.53l1.47,5.46q-5.5.55-11,1.2l2.61-6q.84-8,1.67-15.85-.68-2.79-1.33-5.61c3.52-.11,7-.22,10.56-.31Z" transform="translate(-58.34 -150.27)"/><path class="cls-11" d="M446.81,726.4a3.82,3.82,0,0,1-3.34-1.13,4.75,4.75,0,0,1-1-3.74q.62-7.65,1.25-15.26-.74-2.67-1.46-5.37l8.64-.19q-.74,10-1.45,20.13l3.77-.21q.66-10,1.32-20l8.61-.13c-.71,1.75-1.44,3.5-2.17,5.26q-.4,7.37-.8,14.73a5.71,5.71,0,0,1-1.51,3.77,5.22,5.22,0,0,1-3.56,1.56Q451,726.09,446.81,726.4Z" transform="translate(-58.34 -150.27)"/><path class="cls-11" d="M491.55,697.69q0,10.06,0,20.13a6.94,6.94,0,0,1-1.8,5,6.48,6.48,0,0,1-4.85,1.89q-4.62,0-9.24.16a6.13,6.13,0,0,1-4.82-1.71,6.62,6.62,0,0,1-1.63-5q.13-3.28.26-6.54,4.13,3,8.36,6l4.05-.06q.17-9.95.34-19.88-1.53-3.57-3-7.16h15C493.31,692.92,492.43,695.31,491.55,697.69Z" transform="translate(-58.34 -150.27)"/><path class="cls-11" d="M509.81,705.54q.26,7.19.5,14.38c.72,1.77,1.46,3.53,2.2,5.3q-5.53-.21-11.06-.31,1-2.58,1.9-5.15-.15-7.15-.31-14.3-1-2.58-2-5.16l10.57.09C511,702.11,510.4,703.82,509.81,705.54Z" transform="translate(-58.34 -150.27)"/><path class="cls-11" d="M534.64,726.47c-3.64-.28-7.27-.52-10.91-.73.54-1.74,1.08-3.49,1.61-5.23q-.44-7.35-.88-14.68l-1.28,0q-2.35,1.76-4.74,3.48c-.14-2.94-.29-5.88-.43-8.82q9.51.13,19,.35c.24,3.05.49,6.1.73,9.15-1.74-1.32-3.48-2.61-5.21-3.89l-1.28,0q.53,7.41,1.05,14.87C533.09,722.75,533.86,724.6,534.64,726.47Z" transform="translate(-58.34 -150.27)"/><path class="cls-11" d="M544.4,706.32a5.3,5.3,0,0,1,.89-3.88,3.67,3.67,0,0,1,3.2-1.35c3.83.11,7.65.23,11.48.36q.45,4.13.92,8.27c-2-.94-4-1.86-6-2.76l-3.76-.17c.16,1.64.33,3.28.49,4.92,1.91.11,3.83.23,5.74.36a5,5,0,0,1,3.55,1.75A7.42,7.42,0,0,1,562.6,718q.33,2.9.64,5.81a5.31,5.31,0,0,1-.81,4,3.47,3.47,0,0,1-3.31,1.11q-6.21-.75-12.45-1.36c-.25-2.76-.49-5.52-.74-8.27,2.24,1,4.48,2.11,6.74,3.22l3.85.36-.57-5.55-5.93-.45a5.14,5.14,0,0,1-3.55-1.7,6.54,6.54,0,0,1-1.63-4C544.69,709.57,544.54,707.94,544.4,706.32Z" transform="translate(-58.34 -150.27)"/><path class="cls-11" d="M577.25,731.31a5.73,5.73,0,0,1-3.63-2.09,8.35,8.35,0,0,1-1.78-4.46q-1-8.52-2-16.92l-2.62-6.05,8.62.35q1.47,11.49,2.92,23.24l3.75.5q-1.51-11.93-3-23.58l8.6.4L587,709q1.22,9,2.41,18.15a6.11,6.11,0,0,1-.69,4.4,3.06,3.06,0,0,1-3.23,1.09C582.76,732.17,580,731.73,577.25,731.31Z" transform="translate(-58.34 -150.27)"/><path class="cls-5" d="M395.78,745.27a16.78,16.78,0,0,1-13.82-7c-3-4.13-4.07-9.31-3.26-15.38.37-2.75.74-5.48,1.11-8.21L383.15,690,394,700.13l.06-.42q-.76-3.08-1.51-6.2l-3.75-15.84h51l-8,18.09q-1.41,3.15-2.82,6.36-1.26,10.56-2.52,21.28A23.83,23.83,0,0,1,421,736.29a20.74,20.74,0,0,1-13,7.32c-2.94.43-6,.9-9,1.39A19.92,19.92,0,0,1,395.78,745.27Z" transform="translate(-58.34 -150.27)"/><path class="cls-5" d="M412.53,719.47l1.23-11.7c-.28-1.17-.55-2.35-.83-3.53L409.38,689l15.67-.51c3.54-.11,7.08-.22,10.62-.31l20.3-.55-9.81,22.31q-.54,5.57-1.08,11.17c.28,1,.57,2.1.85,3.14l4,14.7-15.16,1.5c-3.56.35-7.18.74-10.77,1.17l-22.19,2.63Z" transform="translate(-58.34 -150.27)"/><path class="cls-5" d="M446.33,739.29a16.49,16.49,0,0,1-12.44-5.42,17.31,17.31,0,0,1-4.21-13.4l1.07-13c-.29-1.08-.59-2.16-.88-3.25l-4.23-15.8,16.88-.4v0l10.2-.18,12.06-.24v0l17.72-.23-8.75,21.28-.69,12.53a18.48,18.48,0,0,1-5.05,12l-.07.08a17.91,17.91,0,0,1-12,5.43c-2.72.17-5.44.35-8.16.56C447.28,739.27,446.8,739.29,446.33,739.29Z" transform="translate(-58.34 -150.27)"/><path class="cls-5" d="M475.41,737.76a18.93,18.93,0,0,1-13.83-5.66,19.12,19.12,0,0,1-5.21-14.48l1.21-30.72,8.89,6.52-6.54-15.75H512.5l-6.23,17.24q-.91,2.55-1.86,5.08l0,17.82a19.55,19.55,0,0,1-5.43,14,19.13,19.13,0,0,1-14,5.81c-3,0-6,.08-9,.16Z" transform="translate(-58.34 -150.27)"/><path class="cls-5" d="M512,738.08c-3.63-.14-7.27-.24-10.8-.31L483,737.43l6.36-17c.34-.94.69-1.87,1-2.81l-.21-9.54c-.41-1-.81-2-1.21-3l-7-17.68,19,.1c3.55,0,7.09,0,10.64.08l17.7.18-5.64,16.78c-.33,1-.67,2-1,3l.34,9.69,9,21.69Z" transform="translate(-58.34 -150.27)"/><path class="cls-5" d="M533.65,739.3c-3.61-.28-7.2-.52-10.65-.72l-16.44-.94,1.54-4.95-1.34,1-2.28-46.25,13.7.19c6.39.09,12.83.21,19.15.35l11.6.27,1.67,20.71,2.22,27.82,1.72,4.15Z" transform="translate(-58.34 -150.27)"/><path class="cls-5" d="M559.8,741.86a18.32,18.32,0,0,1-2.21-.13c-4-.48-8.12-.93-12.17-1.33l-10.61-1-2.08-23.16a20.85,20.85,0,0,1-.71-3.84l-.44-4.89a21.83,21.83,0,0,1,0-3.88l-.48-5.38,1.56.73a17.07,17.07,0,0,1,2.52-4.46,16.55,16.55,0,0,1,13.14-6.26h.54l11.55.36,11.11.38L574,710.89a21.59,21.59,0,0,1,1.43,5.73l.64,5.82a20.45,20.45,0,0,1-.15,5.81l.32,2.82-.91-.42a16.57,16.57,0,0,1-2.83,5.25l-.08.1A16,16,0,0,1,559.8,741.86Z" transform="translate(-58.34 -150.27)"/><path class="cls-5" d="M586.34,745.57a18.53,18.53,0,0,1-2.94-.25q-4-.68-8.09-1.29a18.52,18.52,0,0,1-11.57-6.57,21,21,0,0,1-4.67-11.2q-.9-7.54-1.8-15c-.62-1.44-1.25-2.87-1.87-4.29l-8.19-18.79,17.51.67v-.05l13.15.58,9.35.4v0l15.78.77-2.25,14.17c-.23,1.49-.47,3-.71,4.46q1.08,8.07,2.16,16.29c.86,6.56-1.15,11-3,13.57l-.08.11A15.7,15.7,0,0,1,586.34,745.57Z" transform="translate(-58.34 -150.27)"/><path class="cls-4" d="M416.38,698.69q-1.38,11.5-2.75,23.21a11.19,11.19,0,0,1-2.47,6.09,8,8,0,0,1-5.07,2.89c-3,.45-6.11.93-9.16,1.42-2,.34-3.54-.16-4.53-1.53s-1.31-3.45-.95-6.15l1.11-8.19q3.69,3.45,7.48,6.71l4-.49q1.5-12,3-23.69c-.7-2.79-1.39-5.59-2.06-8.42h15C418.8,693.22,417.59,695.94,416.38,698.69Z" transform="translate(-58.34 -150.27)"/><path class="cls-4" d="M433.55,706.62q-.75,7.73-1.5,15.53l1.47,5.46q-5.5.55-11,1.2l2.61-6q.84-8,1.67-15.85-.68-2.79-1.33-5.61c3.52-.11,7-.22,10.56-.31Z" transform="translate(-58.34 -150.27)"/><path class="cls-4" d="M446.81,726.4a3.82,3.82,0,0,1-3.34-1.13,4.75,4.75,0,0,1-1-3.74q.62-7.65,1.25-15.26-.74-2.67-1.46-5.37l8.64-.19q-.74,10-1.45,20.13l3.77-.21q.66-10,1.32-20l8.61-.13c-.71,1.75-1.44,3.5-2.17,5.26q-.4,7.37-.8,14.73a5.71,5.71,0,0,1-1.51,3.77,5.22,5.22,0,0,1-3.56,1.56Q451,726.09,446.81,726.4Z" transform="translate(-58.34 -150.27)"/><path class="cls-4" d="M491.55,697.69q0,10.06,0,20.13a6.94,6.94,0,0,1-1.8,5,6.48,6.48,0,0,1-4.85,1.89q-4.62,0-9.24.16a6.13,6.13,0,0,1-4.82-1.71,6.62,6.62,0,0,1-1.63-5q.13-3.28.26-6.54,4.13,3,8.36,6l4.05-.06q.17-9.95.34-19.88-1.53-3.57-3-7.16h15C493.31,692.92,492.43,695.31,491.55,697.69Z" transform="translate(-58.34 -150.27)"/><path class="cls-4" d="M509.81,705.54q.26,7.19.5,14.38c.72,1.77,1.46,3.53,2.2,5.3q-5.53-.21-11.06-.31,1-2.58,1.9-5.15-.15-7.15-.31-14.3-1-2.58-2-5.16l10.57.09C511,702.11,510.4,703.82,509.81,705.54Z" transform="translate(-58.34 -150.27)"/><path class="cls-4" d="M534.64,726.47c-3.64-.28-7.27-.52-10.91-.73.54-1.74,1.08-3.49,1.61-5.23q-.44-7.35-.88-14.68l-1.28,0q-2.35,1.76-4.74,3.48c-.14-2.94-.29-5.88-.43-8.82q9.51.13,19,.35c.24,3.05.49,6.1.73,9.15-1.74-1.32-3.48-2.61-5.21-3.89l-1.28,0q.53,7.41,1.05,14.87C533.09,722.75,533.86,724.6,534.64,726.47Z" transform="translate(-58.34 -150.27)"/><path class="cls-4" d="M544.4,706.32a5.3,5.3,0,0,1,.89-3.88,3.67,3.67,0,0,1,3.2-1.35c3.83.11,7.65.23,11.48.36q.45,4.13.92,8.27c-2-.94-4-1.86-6-2.76l-3.76-.17c.16,1.64.33,3.28.49,4.92,1.91.11,3.83.23,5.74.36a5,5,0,0,1,3.55,1.75A7.42,7.42,0,0,1,562.6,718q.33,2.9.64,5.81a5.31,5.31,0,0,1-.81,4,3.47,3.47,0,0,1-3.31,1.11q-6.21-.75-12.45-1.36c-.25-2.76-.49-5.52-.74-8.27,2.24,1,4.48,2.11,6.74,3.22l3.85.36-.57-5.55-5.93-.45a5.14,5.14,0,0,1-3.55-1.7,6.54,6.54,0,0,1-1.63-4C544.69,709.57,544.54,707.94,544.4,706.32Z" transform="translate(-58.34 -150.27)"/><path class="cls-4" d="M577.25,731.31a5.73,5.73,0,0,1-3.63-2.09,8.35,8.35,0,0,1-1.78-4.46q-1-8.52-2-16.92l-2.62-6.05,8.62.35q1.47,11.49,2.92,23.24l3.75.5q-1.51-11.93-3-23.58l8.6.4L587,709q1.22,9,2.41,18.15a6.11,6.11,0,0,1-.69,4.4,3.06,3.06,0,0,1-3.23,1.09C582.76,732.17,580,731.73,577.25,731.31Z" transform="translate(-58.34 -150.27)"/><path class="cls-5" d="M696.87,641.86" transform="translate(-58.34 -150.27)"/><polygon class="cls-12" points="669.43 486.78 638.35 491.62 643.27 534 682.3 538.65 669.43 486.78"/><polyline class="cls-13" points="639.94 505.26 672.38 498.66 674.04 505.34 640.8 512.68"/><polyline class="cls-13" points="641.41 517.95 674.76 508.26 676.54 515.43 641.91 522.28"/><path class="cls-13" d="M697.65,648.81" transform="translate(-58.34 -150.27)"/><polyline class="cls-13" points="642.89 530.75 680.32 530.64 678.25 522.3 642.5 527.3"/></svg>